HIERARCHY
ROOT Hips
{
	OFFSET 0.000000 0.000000 0.000000
	CHANNELS 6 Xposition Yposition Zposition Zrotation Yrotation Xrotation 
	JOINT LeftUpLeg_virtual
	{
		OFFSET 0.000000 0.000000 0.000000
		CHANNELS 3 Zrotation Yrotation Xrotation
		JOINT LeftUpLeg
		{
			OFFSET 8.479694 -4.795517 -0.379053
			CHANNELS 3 Zrotation Yrotation Xrotation
			JOINT LeftLeg
			{
				OFFSET 0.485052 -32.551468 0.112863
				CHANNELS 3 Zrotation Yrotation Xrotation
				JOINT LeftFoot
				{
					OFFSET 0.438033 -32.635670 -3.012641
					CHANNELS 3 Zrotation Yrotation Xrotation
					JOINT LeftToeBase
					{
						OFFSET 0.970169 -13.225353 11.864223
						CHANNELS 3 Zrotation Yrotation Xrotation
						End Site
						{
							OFFSET 0.000000 0.000000 0.000000
						}
					}
				}
			}
		}
	}
	JOINT RightUpLeg_virtual
	{
		OFFSET 0.000000 0.000000 0.000000
		CHANNELS 3 Zrotation Yrotation Xrotation
		JOINT RightUpLeg
		{
			OFFSET -8.479694 -4.795517 -0.379053
			CHANNELS 3 Zrotation Yrotation Xrotation
			JOINT RightLeg
			{
				OFFSET -0.484100 -32.551483 0.112903
				CHANNELS 3 Zrotation Yrotation Xrotation
				JOINT RightFoot
				{
					OFFSET -0.438985 -32.635651 -3.012681
					CHANNELS 3 Zrotation Yrotation Xrotation
					JOINT RightToeBase
					{
						OFFSET -0.970169 -13.225354 11.864223
						CHANNELS 3 Zrotation Yrotation Xrotation
						End Site
						{
							OFFSET 0.000000 0.000000 0.000000
						}
					}
				}
			}
		}
	}
	JOINT Spine_virtual
	{
		OFFSET 0.000000 0.000000 0.000000
		CHANNELS 3 Zrotation Yrotation Xrotation
		JOINT Spine
		{
			OFFSET 0.000000 7.722015 1.166203
			CHANNELS 3 Zrotation Yrotation Xrotation
			JOINT Spine1
			{
				OFFSET 0.000000 12.024086 0.248766
				CHANNELS 3 Zrotation Yrotation Xrotation
				JOINT Spine2
				{
					OFFSET -0.000000 11.503036 -0.491240
					CHANNELS 3 Zrotation Yrotation Xrotation
					JOINT Neck_virtual
					{
						OFFSET 0.000000 0.000000 0.000000
						CHANNELS 3 Zrotation Yrotation Xrotation
						JOINT Neck
						{
							OFFSET 0.000000 18.430687 -3.123054
							CHANNELS 3 Zrotation Yrotation Xrotation
							JOINT Head
							{
								OFFSET -0.000000 9.051071 1.034021
								CHANNELS 3 Zrotation Yrotation Xrotation
								End Site
								{
									OFFSET 0.000000 0.000000 0.000000
								}
							}
						}
					}
					JOINT LeftShoulder_virtual
					{
						OFFSET 0.000000 0.000000 0.000000
						CHANNELS 3 Zrotation Yrotation Xrotation
						JOINT LeftShoulder
						{
							OFFSET 6.197824 13.665230 -4.064723
							CHANNELS 3 Zrotation Yrotation Xrotation
							JOINT LeftArm
							{
								OFFSET 7.778132 -0.187073 -1.709282
								CHANNELS 3 Zrotation Yrotation Xrotation
								JOINT LeftForeArm
								{
									OFFSET 21.954697 0.000000 -2.041093
									CHANNELS 3 Zrotation Yrotation Xrotation
									JOINT LeftHand
									{
										OFFSET 22.992908 0.000000 -0.870901
										CHANNELS 3 Zrotation Yrotation Xrotation
										End Site
										{
											OFFSET 0.000000 0.000000 0.000000
										}
									}
								}
							}
						}
					}
					JOINT RightShoulder_virtual
					{
						OFFSET 0.000000 0.000000 0.000000
						CHANNELS 3 Zrotation Yrotation Xrotation
						JOINT RightShoulder
						{
							OFFSET -6.197824 13.665230 -4.064723
							CHANNELS 3 Zrotation Yrotation Xrotation
							JOINT RightArm
							{
								OFFSET -7.778132 -0.187073 -1.709282
								CHANNELS 3 Zrotation Yrotation Xrotation
								JOINT RightForeArm
								{
									OFFSET -21.954697 0.000000 -2.041093
									CHANNELS 3 Zrotation Yrotation Xrotation
									JOINT RightHand
									{
										OFFSET -22.992908 0.000000 -0.870901
										CHANNELS 3 Zrotation Yrotation Xrotation
										End Site
										{
											OFFSET 0.000000 0.000000 0.000000
										}
									}
								}
							}
						}
					}
				}
			}
		}
	}
}
MOTION
Frames: 9
Frame Time: 0.033333
21.436855 77.130798 -23.390549 -179.118501 59.115369 -179.295935 9.484025 9.747769 71.066356 -20.430414 -3.285145 -88.907521 9.229524 8.577673 49.506878 -6.187317 -7.475810 -14.262138 0.000000 0.000000 0.000000 16.690494 -1.010908 75.867078 -17.530135 -15.752030 -106.766054 0.538117 1.192717 58.856635 5.819584 1.316827 -0.847026 0.000000 0.000000 0.000000 23.153911 -0.956365 83.766007 8.448444 -3.366971 11.734758 1.976275 -3.200867 8.381968 -0.064999 0.105558 -0.011770 2.226667 -2.327969 9.278021 -0.451403 -10.433187 -12.386259 0.000000 0.000000 0.000000 3.171765 -0.822568 4.095464 -3.783392 -12.395632 4.048706 19.107020 -61.824632 -51.295130 9.391152 -38.063435 -4.253464 0.000000 0.000000 0.000000 -1.201206 1.008377 3.720777 15.451643 1.361079 2.295374 -36.526834 53.448211 -69.081981 0.281855 51.643347 1.729231 0.000000 0.000000 0.000000 
21.368801 77.084976 -23.432695 -179.183333 59.468586 -179.351041 9.466142 9.866761 71.092338 -20.397873 -3.261913 -88.895670 9.087223 8.698371 49.606486 -6.129660 -7.407556 -14.534291 0.000000 0.000000 0.000000 16.700108 -1.027939 75.850070 -17.513853 -15.814420 -106.866519 0.504955 1.275688 58.835290 5.846236 1.316461 -0.810632 0.000000 0.000000 0.000000 23.112728 -0.732494 83.941099 8.311650 -3.196751 11.966941 1.800101 -3.217783 8.436878 -0.012801 0.044093 0.023559 2.283035 -2.130347 9.249948 -0.424747 -10.689927 -12.972836 0.000000 0.000000 0.000000 3.197387 -0.802267 4.124990 -3.208936 -12.449348 3.954781 18.916993 -61.884560 -51.861790 9.289797 -38.815316 -4.735394 0.000000 0.000000 0.000000 -1.194952 1.006040 3.669388 16.022266 1.613153 2.276561 -37.096434 54.052505 -68.892689 0.273258 52.273138 1.533220 0.000000 0.000000 0.000000 
21.281763 77.064117 -23.507008 -179.194398 58.659884 -179.454232 9.440235 9.734255 71.104380 -20.062634 -3.381209 -89.014133 8.952635 8.486725 49.801085 -6.069996 -7.357876 -14.521599 0.000000 0.000000 0.000000 16.649110 -1.215403 76.008729 -17.321042 -15.955201 -106.819357 0.494108 1.158259 58.714915 5.748339 1.225716 -0.965139 0.000000 0.000000 0.000000 22.949760 -1.208616 84.012235 8.503726 -3.248626 12.020442 1.869363 -3.200839 8.406904 -0.060639 0.087809 0.021256 2.100309 -2.337892 9.169608 -0.686708 -10.668056 -13.693518 0.000000 0.000000 0.000000 3.067540 -0.800854 4.055926 -2.638183 -12.445032 3.762596 18.418780 -61.463923 -51.966975 9.211965 -39.565459 -5.364778 0.000000 0.000000 0.000000 -1.337025 0.936260 3.702673 16.326915 2.003245 2.401288 -37.418416 54.715641 -68.463193 0.097388 52.968028 1.245975 0.000000 0.000000 0.000000 
21.219202 77.071579 -23.644453 -179.053887 58.321114 -179.274065 9.410262 9.751287 71.171377 -19.668886 -3.525968 -89.207721 8.781318 8.352739 49.858141 -5.961661 -7.266982 -14.465705 0.000000 0.000000 0.000000 16.662460 -1.187708 76.126577 -17.216480 -16.008334 -106.804290 0.495130 1.152056 58.579254 5.627620 1.132012 -1.115522 0.000000 0.000000 0.000000 22.952407 -1.257024 84.178769 8.432394 -3.240408 12.046084 1.845735 -3.155406 8.314323 -0.079183 0.155885 -0.019249 1.998971 -2.395698 9.143269 -0.913425 -10.726302 -14.418980 0.000000 0.000000 0.000000 3.006277 -0.853044 4.021444 -2.002431 -12.474386 3.595445 17.838615 -60.685199 -52.057871 9.247642 -40.317391 -5.817499 0.000000 0.000000 0.000000 -1.420015 0.980083 3.658966 16.710399 2.342654 2.524052 -37.130804 55.239155 -66.957485 0.069568 53.803292 1.141913 0.000000 0.000000 0.000000 
21.162756 77.110992 -23.844658 -179.020938 57.907607 -179.204739 9.295039 9.729476 71.256700 -19.229057 -3.740570 -89.372595 8.603004 8.187204 49.781427 -5.831124 -7.126371 -14.326556 0.000000 0.000000 0.000000 16.619085 -1.178184 76.265189 -17.107308 -16.099866 -106.697923 0.519471 1.188450 58.371425 5.536703 1.096823 -1.347789 0.000000 0.000000 0.000000 22.923022 -1.353185 84.287103 8.267001 -3.225595 12.023267 1.813570 -3.107271 8.194986 -0.129534 0.009672 -0.016311 1.969263 -2.358877 9.095449 -1.248270 -10.746575 -15.169282 0.000000 0.000000 0.000000 3.024983 -0.838459 3.925112 -1.461944 -12.480108 3.416366 17.582869 -59.952928 -52.364280 9.454724 -41.079415 -6.360682 0.000000 0.000000 0.000000 -1.380205 0.979190 3.580249 16.851245 3.007733 2.667544 -35.871170 55.771835 -64.016057 -0.035100 54.558656 0.990309 0.000000 0.000000 0.000000 
21.115631 77.166100 -24.088287 -179.092396 57.401941 -179.282862 9.078990 9.545883 71.296233 -18.822012 -3.967057 -89.424067 8.472771 7.989480 49.683418 -5.678214 -6.904339 -14.196316 0.000000 0.000000 0.000000 16.500940 -1.289129 76.309851 -16.982746 -16.217140 -106.491808 0.564609 1.229966 58.181457 5.500165 1.137951 -1.617486 0.000000 0.000000 0.000000 22.469068 -1.405744 84.222824 8.126771 -3.256855 12.050139 1.815682 -3.198336 8.087612 -0.216737 0.120444 0.057809 1.813230 -2.448520 8.931359 -1.650375 -10.711114 -15.990878 0.000000 0.000000 0.000000 2.898397 -0.743587 3.738557 -1.132898 -12.538528 3.361850 17.342711 -59.602512 -52.519138 9.693746 -41.948775 -6.893814 0.000000 0.000000 0.000000 -1.419616 1.029330 3.467064 16.661297 3.798221 2.816541 -33.568023 56.799648 -59.390899 -0.190050 55.133427 0.875871 0.000000 0.000000 0.000000 
21.100517 77.220009 -24.278206 -179.016594 56.472885 -179.122394 8.820791 9.037355 71.093991 -18.448530 -4.177142 -89.600969 8.453672 7.608291 49.734798 -5.544717 -6.616176 -13.977800 0.000000 0.000000 0.000000 16.365891 -1.671606 76.097856 -16.754381 -16.383243 -106.312871 0.639095 1.111669 58.026050 5.550536 1.279416 -1.812742 0.000000 0.000000 0.000000 21.574698 -2.182614 83.722321 7.598632 -3.068041 12.193983 1.634519 -2.952957 7.948270 -0.238435 0.365960 0.048318 1.775882 -2.409117 8.852641 -1.730775 -10.595660 -16.875181 0.000000 0.000000 0.000000 2.788404 -0.687542 3.667549 -0.984474 -12.834933 3.221650 16.802274 -59.846992 -51.970329 9.916926 -42.864075 -7.349555 0.000000 0.000000 0.000000 -1.424185 1.061378 3.378293 16.318819 4.797914 2.959068 -29.544724 57.790729 -52.494314 -0.177127 55.470388 0.979143 0.000000 0.000000 0.000000 
21.107168 77.238701 -24.371386 -179.070170 56.939305 -179.145644 8.668161 8.763830 71.084627 -18.422398 -4.260980 -89.517026 8.463622 7.700908 49.718436 -5.338378 -6.204268 -14.099282 0.000000 0.000000 0.000000 16.357693 -1.797271 75.843595 -16.859999 -16.430519 -106.212126 0.683449 1.312891 58.133892 5.712432 1.526543 -1.842863 0.000000 0.000000 0.000000 22.348896 -1.557202 83.452843 7.228218 -3.299406 12.376271 1.599729 -3.297831 7.787549 -0.091527 0.042593 0.053160 1.707146 -2.420903 8.667220 -2.024082 -10.548507 -17.911111 0.000000 0.000000 0.000000 2.759341 -0.809855 3.563874 -1.513486 -13.280686 3.308209 15.540933 -60.717390 -50.243705 10.009261 -43.591937 -7.622159 0.000000 0.000000 0.000000 -1.472866 0.967135 3.178540 15.472036 5.571945 3.070358 -24.504803 58.774331 -44.874937 -0.173526 55.733319 1.114259 0.000000 0.000000 0.000000 
21.201029 77.231819 -24.383709 -179.175478 56.971868 -179.224560 8.711988 8.437515 71.147123 -18.477043 -4.372264 -89.516186 8.484551 7.677690 49.757003 -5.312523 -5.945026 -14.067237 0.000000 0.000000 0.000000 16.587891 -1.969287 75.755144 -16.926025 -16.579087 -106.362650 0.693424 1.409090 58.480380 5.822122 1.737671 -1.765056 0.000000 0.000000 0.000000 22.346770 -1.363104 83.148906 6.631495 -3.400562 12.736143 1.440440 -3.227595 7.678465 -0.019378 0.078772 0.003299 1.786775 -2.217196 8.404352 -1.918815 -10.546326 -19.098138 0.000000 0.000000 0.000000 2.840142 -0.781051 3.442604 -1.918237 -13.618330 3.397068 13.381032 -62.072896 -47.195405 10.106083 -43.829891 -8.037036 0.000000 0.000000 0.000000 -1.393762 0.973951 2.940065 14.682513 6.295281 2.991489 -19.756816 59.524334 -38.629795 -0.411992 55.727701 0.975679 0.000000 0.000000 0.000000 
